<svg xmlns="http://www.w3.org/2000/svg" xmlns:xlink="http://www.w3.org/1999/xlink" width="128" height="169" viewBox="0 0 128 169">
  <defs>
    <rect id="coverunavailable-a" width="128" height="169"/>
  </defs>
  <g fill="none" fill-rule="evenodd">
    <use fill="#D8D8D8" xlink:href="#coverunavailable-a"/>
    <rect width="125" height="166" x="1.5" y="1.5" stroke="#979797" stroke-width="3"/>
    <path fill="#979797" d="M47.5090148,74.828125 C47.3944309,76.0416727 46.9465187,76.9882779 46.1652648,77.6679688 C45.3840109,78.3476596 44.3449588,78.6875 43.0480773,78.6875 C42.1418228,78.6875 41.3436537,78.4726584 40.6535461,78.0429688 C39.9634384,77.6132791 39.4308917,77.0026081 39.0558898,76.2109375 C38.6808879,75.4192669 38.4855774,74.5000052 38.4699523,73.453125 L38.4699523,72.390625 C38.4699523,71.317703 38.6600546,70.3723999 39.0402648,69.5546875 C39.420475,68.7369751 39.9660425,68.106773 40.6769836,67.6640625 C41.3879246,67.221352 42.209531,67 43.1418273,67 C44.3970419,67 45.4074485,67.3411424 46.1730773,68.0234375 C46.9387061,68.7057326 47.3840142,69.6692646 47.5090148,70.9140625 L45.5402648,70.9140625 C45.4465143,70.0963501 45.2082355,69.5065122 44.8254211,69.1445312 C44.4426067,68.7825503 43.8814143,68.6015625 43.1418273,68.6015625 C42.282448,68.6015625 41.6222984,68.9153614 41.1613586,69.5429688 C40.7004188,70.1705761 40.464744,71.0911398 40.4543273,72.3046875 L40.4543273,73.3125 C40.4543273,74.5416728 40.6743772,75.4791634 41.1144836,76.125 C41.5545899,76.7708366 42.1991147,77.09375 43.0480773,77.09375 C43.8241229,77.09375 44.4074504,76.9192726 44.7980773,76.5703125 C45.1887043,76.2213524 45.4360976,75.6406291 45.5402648,74.828125 L47.5090148,74.828125 Z M58.6604573,73.140625 C58.6604573,74.2552139 58.4677508,75.2330687 58.0823323,76.0742188 C57.6969137,76.9153688 57.1461379,77.5611957 56.4299885,78.0117188 C55.7138391,78.4622418 54.8896286,78.6875 53.9573323,78.6875 C53.0354526,78.6875 52.2138463,78.4622418 51.4924885,78.0117188 C50.7711307,77.5611957 50.2138446,76.919275 49.8206135,76.0859375 C49.4273824,75.2526 49.2281656,74.2916721 49.2229573,73.203125 L49.2229573,72.5625 C49.2229573,71.4531195 49.4195699,70.4739626 49.812801,69.625 C50.2060321,68.7760374 50.7607141,68.1263043 51.4768635,67.6757812 C52.1930129,67.2252582 53.0146193,67 53.9417073,67 C54.8687952,67 55.6904016,67.222654 56.406551,67.6679688 C57.1227004,68.1132835 57.6760803,68.7539021 58.0667073,69.5898438 C58.4573342,70.4257854 58.6552489,71.398432 58.6604573,72.5078125 L58.6604573,73.140625 Z M56.6838948,72.546875 C56.6838948,71.286452 56.4456159,70.3203159 55.969051,69.6484375 C55.4924861,68.9765591 54.8167116,68.640625 53.9417073,68.640625 C53.0875363,68.640625 52.4195742,68.9752571 51.937801,69.6445312 C51.4560278,70.3138054 51.2099365,71.2604105 51.1995198,72.484375 L51.1995198,73.140625 C51.1995198,74.3906313 51.4430069,75.3567674 51.9299885,76.0390625 C52.4169701,76.7213576 53.0927446,77.0625 53.9573323,77.0625 C54.8323366,77.0625 55.505507,76.72917 55.9768635,76.0625 C56.44822,75.39583 56.6838948,74.4218814 56.6838948,73.140625 L56.6838948,72.546875 Z M64.7728372,76.0546875 L67.6634622,67.15625 L69.8353372,67.15625 L65.7415872,78.53125 L63.8275247,78.53125 L59.7493997,67.15625 L61.9134622,67.15625 L64.7728372,76.0546875 Z M78.0727171,73.453125 L73.4008421,73.453125 L73.4008421,76.953125 L78.8617796,76.953125 L78.8617796,78.53125 L71.4242796,78.53125 L71.4242796,67.15625 L78.8070921,67.15625 L78.8070921,68.75 L73.4008421,68.75 L73.4008421,71.890625 L78.0727171,71.890625 L78.0727171,73.453125 Z M84.9585346,74.1484375 L82.7554096,74.1484375 L82.7554096,78.53125 L80.7788471,78.53125 L80.7788471,67.15625 L84.7788471,67.15625 C86.0913536,67.15625 87.1043643,67.4505179 87.8179096,68.0390625 C88.5314548,68.6276071 88.8882221,69.4791611 88.8882221,70.59375 C88.8882221,71.3541705 88.7046302,71.9908829 88.3374408,72.5039062 C87.9702515,73.0169296 87.4585378,73.411457 86.8022846,73.6875 L89.3569721,78.4296875 L89.3569721,78.53125 L87.2397846,78.53125 L84.9585346,74.1484375 Z M82.7554096,72.5625 L84.7866596,72.5625 C85.4533296,72.5625 85.9741577,72.3945329 86.3491596,72.0585938 C86.7241614,71.7226546 86.9116596,71.2630238 86.9116596,70.6796875 C86.9116596,70.0703095 86.7384842,69.59896 86.3921283,69.265625 C86.0457724,68.93229 85.5288505,68.7604167 84.8413471,68.75 L82.7554096,68.75 L82.7554096,72.5625 Z M19.5,94.15625 L19.5,101.757812 C19.5,102.966152 19.1132851,103.923174 18.3398438,104.628906 C17.5664024,105.334639 16.5364648,105.6875 15.25,105.6875 C13.9479102,105.6875 12.9140663,105.339847 12.1484375,104.644531 C11.3828087,103.949215 11,102.984381 11,101.75 L11,94.15625 L12.96875,94.15625 L12.96875,101.765625 C12.96875,102.526045 13.1614564,103.106769 13.546875,103.507812 C13.9322936,103.908856 14.4999962,104.109375 15.25,104.109375 C16.7708409,104.109375 17.53125,103.3073 17.53125,101.703125 L17.53125,94.15625 L19.5,94.15625 Z M30.9405049,105.53125 L28.9639424,105.53125 L23.8936299,97.4609375 L23.8936299,105.53125 L21.9170674,105.53125 L21.9170674,94.15625 L23.8936299,94.15625 L28.9795674,102.257812 L28.9795674,94.15625 L30.9405049,94.15625 L30.9405049,105.53125 Z M40.0919474,102.882812 L35.6856974,102.882812 L34.7638224,105.53125 L32.7091349,105.53125 L37.0060099,94.15625 L38.7794474,94.15625 L43.0841349,105.53125 L41.0216349,105.53125 L40.0919474,102.882812 Z M36.2403849,101.289062 L39.5372599,101.289062 L37.8888224,96.5703125 L36.2403849,101.289062 Z M48.0871398,103.054688 L50.9777648,94.15625 L53.1496398,94.15625 L49.0558898,105.53125 L47.1418273,105.53125 L43.0637023,94.15625 L45.2277648,94.15625 L48.0871398,103.054688 Z M60.5198323,102.882812 L56.1135823,102.882812 L55.1917073,105.53125 L53.1370198,105.53125 L57.4338948,94.15625 L59.2073323,94.15625 L63.5120198,105.53125 L61.4495198,105.53125 L60.5198323,102.882812 Z M56.6682698,101.289062 L59.9651448,101.289062 L58.3167073,96.5703125 L56.6682698,101.289062 Z M67.1947122,105.53125 L65.2259622,105.53125 L65.2259622,94.15625 L67.1947122,94.15625 L67.1947122,105.53125 Z M71.9086546,103.953125 L77.0727171,103.953125 L77.0727171,105.53125 L69.9320921,105.53125 L69.9320921,94.15625 L71.9086546,94.15625 L71.9086546,103.953125 Z M85.4116596,102.882812 L81.0054096,102.882812 L80.0835346,105.53125 L78.0288471,105.53125 L82.3257221,94.15625 L84.0991596,94.15625 L88.4038471,105.53125 L86.3413471,105.53125 L85.4116596,102.882812 Z M81.5600971,101.289062 L84.8569721,101.289062 L83.2085346,96.5703125 L81.5600971,101.289062 Z M90.000602,105.53125 L90.000602,94.15625 L93.8990395,94.15625 C95.1855043,94.15625 96.1646611,94.4140599 96.8365395,94.9296875 C97.5084179,95.4453151 97.844352,96.2135366 97.844352,97.234375 C97.844352,97.7552109 97.7037284,98.2239563 97.422477,98.640625 C97.1412256,99.0572937 96.7297714,99.3802072 96.188102,99.609375 C96.8026884,99.7760425 97.2779441,100.089841 97.6138833,100.550781 C97.9498224,101.011721 98.1177895,101.565101 98.1177895,102.210938 C98.1177895,103.278651 97.775345,104.098955 97.0904458,104.671875 C96.4055465,105.244795 95.4250876,105.53125 94.1490395,105.53125 L90.000602,105.53125 Z M91.9771645,100.398438 L91.9771645,103.953125 L94.172477,103.953125 C94.7922718,103.953125 95.2766419,103.799481 95.625602,103.492188 C95.9745621,103.184894 96.1490395,102.757815 96.1490395,102.210938 C96.1490395,101.02864 95.5448789,100.424479 94.3365395,100.398438 L91.9771645,100.398438 Z M91.9771645,98.9453125 L93.9146645,98.9453125 C94.5292509,98.9453125 95.0097149,98.805991 95.3560708,98.5273438 C95.7024267,98.2486965 95.875602,97.8541692 95.875602,97.34375 C95.875602,96.7812472 95.7154474,96.3750012 95.3951333,96.125 C95.0748192,95.8749988 94.5761262,95.75 93.8990395,95.75 L91.9771645,95.75 L91.9771645,98.9453125 Z M102.378607,103.953125 L107.542669,103.953125 L107.542669,105.53125 L100.402044,105.53125 L100.402044,94.15625 L102.378607,94.15625 L102.378607,103.953125 Z M116.014424,100.453125 L111.342549,100.453125 L111.342549,103.953125 L116.803487,103.953125 L116.803487,105.53125 L109.365987,105.53125 L109.365987,94.15625 L116.748799,94.15625 L116.748799,95.75 L111.342549,95.75 L111.342549,98.890625 L116.014424,98.890625 L116.014424,100.453125 Z"/>
  </g>
</svg>
